solid OpenSCAD_Model
  facet normal -1 0 0
    outer loop
      vertex 0 75 0
      vertex 0 28 47
      vertex 0 75 75
    endloop
  endfacet
  facet normal -1 0 0
    outer loop
      vertex 0 0 0
      vertex 0 28 47
      vertex 0 75 0
    endloop
  endfacet
  facet normal -1 -0 0
    outer loop
      vertex 0 28 47
      vertex 0 0 0
      vertex 0 4.59243e-15 47
    endloop
  endfacet
  facet normal -1 0 0
    outer loop
      vertex 0 0 75
      vertex 0 4.59243e-15 47
      vertex 0 0 0
    endloop
  endfacet
  facet normal -1 0 0
    outer loop
      vertex 0 4.59243e-15 47
      vertex 0 0 75
      vertex 0 4.59243e-15 75
    endloop
  endfacet
  facet normal -1 -0 0
    outer loop
      vertex 0 75 75
      vertex 0 28 47
      vertex 0 28 75
    endloop
  endfacet
  facet normal 0 0 1
    outer loop
      vertex -4.59243e-15 4.59243e-15 75
      vertex 3 3 75
      vertex -1.16341e-15 28 75
    endloop
  endfacet
  facet normal 0 0 1
    outer loop
      vertex 3 3 75
      vertex -4.59243e-15 4.59243e-15 75
      vertex 0 4.59243e-15 75
    endloop
  endfacet
  facet normal 0 0 1
    outer loop
      vertex 28 28 75
      vertex 25 25 75
      vertex 28 3 75
    endloop
  endfacet
  facet normal -0 0 1
    outer loop
      vertex 3 28 75
      vertex 25 25 75
      vertex 28 28 75
    endloop
  endfacet
  facet normal 0 0 1
    outer loop
      vertex 25 25 75
      vertex 3 28 75
      vertex 3 25 75
    endloop
  endfacet
  facet normal -0 0 1
    outer loop
      vertex 28 3 75
      vertex 47 0 75
      vertex 47 3 75
    endloop
  endfacet
  facet normal 0 0 1
    outer loop
      vertex 25 3 75
      vertex 28 3 75
      vertex 25 25 75
    endloop
  endfacet
  facet normal -0 0 1
    outer loop
      vertex 25 3 75
      vertex 47 0 75
      vertex 28 3 75
    endloop
  endfacet
  facet normal 0 0 1
    outer loop
      vertex 0 0 75
      vertex 25 3 75
      vertex 3 3 75
    endloop
  endfacet
  facet normal 0 0 1
    outer loop
      vertex 3 28 75
      vertex 0 28 75
      vertex 3 25 75
    endloop
  endfacet
  facet normal -0 0 1
    outer loop
      vertex -1.16341e-15 28 75
      vertex 3 25 75
      vertex 0 28 75
    endloop
  endfacet
  facet normal 0 0 1
    outer loop
      vertex 3 25 75
      vertex -1.16341e-15 28 75
      vertex 3 3 75
    endloop
  endfacet
  facet normal 0 0 1
    outer loop
      vertex 0 0 75
      vertex 3 3 75
      vertex 0 4.59243e-15 75
    endloop
  endfacet
  facet normal 0 0 1
    outer loop
      vertex 25 3 75
      vertex 0 0 75
      vertex 47 0 75
    endloop
  endfacet
  facet normal 0 0 1
    outer loop
      vertex 28 72 75
      vertex 25 50 75
      vertex 28 47 75
    endloop
  endfacet
  facet normal 0 0 1
    outer loop
      vertex 3 47 75
      vertex 25 50 75
      vertex 3 50 75
    endloop
  endfacet
  facet normal 0 0 1
    outer loop
      vertex 25 50 75
      vertex 3 47 75
      vertex 28 47 75
    endloop
  endfacet
  facet normal 0 0 1
    outer loop
      vertex 72 28 75
      vertex 50 25 75
      vertex 72 25 75
    endloop
  endfacet
  facet normal 0 0 1
    outer loop
      vertex 47 3 75
      vertex 50 25 75
      vertex 47 28 75
    endloop
  endfacet
  facet normal -0 0 1
    outer loop
      vertex 47 28 75
      vertex 50 25 75
      vertex 72 28 75
    endloop
  endfacet
  facet normal -0 0 1
    outer loop
      vertex 50 50 75
      vertex 72 47 75
      vertex 72 50 75
    endloop
  endfacet
  facet normal 0 0 1
    outer loop
      vertex 50 50 75
      vertex 47 47 75
      vertex 72 47 75
    endloop
  endfacet
  facet normal 0 0 1
    outer loop
      vertex 47 47 75
      vertex 50 50 75
      vertex 47 72 75
    endloop
  endfacet
  facet normal -0 0 1
    outer loop
      vertex 72 47 75
      vertex 75 0 75
      vertex 75 75 75
    endloop
  endfacet
  facet normal 0 0 1
    outer loop
      vertex 72 50 75
      vertex 75 75 75
      vertex 72 72 75
    endloop
  endfacet
  facet normal 0 0 1
    outer loop
      vertex 75 75 75
      vertex 50 72 75
      vertex 72 72 75
    endloop
  endfacet
  facet normal 0 0 1
    outer loop
      vertex 50 72 75
      vertex 47 72 75
      vertex 50 50 75
    endloop
  endfacet
  facet normal -0 0 1
    outer loop
      vertex 28 75 75
      vertex 50 72 75
      vertex 75 75 75
    endloop
  endfacet
  facet normal 0 0 1
    outer loop
      vertex 50 72 75
      vertex 28 75 75
      vertex 47 72 75
    endloop
  endfacet
  facet normal 0 0 1
    outer loop
      vertex 28 75 75
      vertex 28 72 75
      vertex 47 72 75
    endloop
  endfacet
  facet normal 0 0 1
    outer loop
      vertex 25 72 75
      vertex 28 72 75
      vertex 28 75 75
    endloop
  endfacet
  facet normal 0 0 1
    outer loop
      vertex 25 50 75
      vertex 28 72 75
      vertex 25 72 75
    endloop
  endfacet
  facet normal 0 0 1
    outer loop
      vertex 28 75 75
      vertex 3 72 75
      vertex 25 72 75
    endloop
  endfacet
  facet normal -0 0 1
    outer loop
      vertex 0 75 75
      vertex 3 72 75
      vertex 2.29621e-15 75 75
    endloop
  endfacet
  facet normal 0 0 1
    outer loop
      vertex 3 72 75
      vertex 0 75 75
      vertex 3 50 75
    endloop
  endfacet
  facet normal 0 0 1
    outer loop
      vertex 0 28 75
      vertex 3 50 75
      vertex 0 75 75
    endloop
  endfacet
  facet normal 0 0 1
    outer loop
      vertex 3 50 75
      vertex 0 28 75
      vertex 3 47 75
    endloop
  endfacet
  facet normal 0 0 1
    outer loop
      vertex 3 47 75
      vertex 0 28 75
      vertex 3 28 75
    endloop
  endfacet
  facet normal -0 0 1
    outer loop
      vertex 2.29621e-15 75 75
      vertex 3 72 75
      vertex 28 75 75
    endloop
  endfacet
  facet normal 0 0 1
    outer loop
      vertex 72 47 75
      vertex 75 75 75
      vertex 72 50 75
    endloop
  endfacet
  facet normal -0 0 1
    outer loop
      vertex 72 28 75
      vertex 75 0 75
      vertex 72 47 75
    endloop
  endfacet
  facet normal -0 0 1
    outer loop
      vertex 72 25 75
      vertex 75 0 75
      vertex 72 28 75
    endloop
  endfacet
  facet normal -0 0 1
    outer loop
      vertex 72 3 75
      vertex 75 0 75
      vertex 72 25 75
    endloop
  endfacet
  facet normal 0 0 1
    outer loop
      vertex 75 0 75
      vertex 72 3 75
      vertex 75 -6.88864e-15 75
    endloop
  endfacet
  facet normal -0 0 1
    outer loop
      vertex 50 3 75
      vertex 75 -6.88864e-15 75
      vertex 72 3 75
    endloop
  endfacet
  facet normal 0 0 1
    outer loop
      vertex 50 25 75
      vertex 47 3 75
      vertex 50 3 75
    endloop
  endfacet
  facet normal 0 0 1
    outer loop
      vertex 47 0 75
      vertex 50 3 75
      vertex 47 3 75
    endloop
  endfacet
  facet normal 0 0 1
    outer loop
      vertex 47 -1.74512e-15 75
      vertex 50 3 75
      vertex 47 0 75
    endloop
  endfacet
  facet normal 0 0 1
    outer loop
      vertex 50 3 75
      vertex 47 -1.74512e-15 75
      vertex 75 -6.88864e-15 75
    endloop
  endfacet
  facet normal 1 -0 0
    outer loop
      vertex 75 0 75
      vertex 75 75 0
      vertex 75 75 75
    endloop
  endfacet
  facet normal 1 0 0
    outer loop
      vertex 75 75 0
      vertex 75 0 75
      vertex 75 0 0
    endloop
  endfacet
  facet normal 0 1 0
    outer loop
      vertex 75 75 75
      vertex 28 75 47
      vertex 28 75 75
    endloop
  endfacet
  facet normal 0 1 0
    outer loop
      vertex 0 75 0
      vertex 28 75 47
      vertex 75 75 0
    endloop
  endfacet
  facet normal 0 1 -0
    outer loop
      vertex 75 75 0
      vertex 28 75 47
      vertex 75 75 75
    endloop
  endfacet
  facet normal 0 1 -0
    outer loop
      vertex 2.29621e-15 75 47
      vertex 0 75 75
      vertex 2.29621e-15 75 75
    endloop
  endfacet
  facet normal 0 1 0
    outer loop
      vertex 2.29621e-15 75 47
      vertex 0 75 0
      vertex 0 75 75
    endloop
  endfacet
  facet normal 0 1 0
    outer loop
      vertex 28 75 47
      vertex 0 75 0
      vertex 2.29621e-15 75 47
    endloop
  endfacet
  facet normal 0 0 -1
    outer loop
      vertex 0 0 0
      vertex 75 75 0
      vertex 75 0 0
    endloop
  endfacet
  facet normal -0 0 -1
    outer loop
      vertex 75 75 0
      vertex 0 0 0
      vertex 0 75 0
    endloop
  endfacet
  facet normal 0 -1 0
    outer loop
      vertex 0 0 75
      vertex 47 0 47
      vertex 47 0 75
    endloop
  endfacet
  facet normal 0 -1 0
    outer loop
      vertex 0 0 0
      vertex 47 0 47
      vertex 0 0 75
    endloop
  endfacet
  facet normal 0 -1 0
    outer loop
      vertex 75 0 0
      vertex 47 0 47
      vertex 0 0 0
    endloop
  endfacet
  facet normal 0 -1 0
    outer loop
      vertex 47 0 47
      vertex 75 0 0
      vertex 75 0 47
    endloop
  endfacet
  facet normal 0 0 0
    outer loop
      vertex 75 0 47
      vertex 75 0 0
      vertex 75 0 75
    endloop
  endfacet
  facet normal 1 0 0
    outer loop
      vertex 3 25 75
      vertex 3 3 75
      vertex 3 25 47
    endloop
  endfacet
  facet normal 1 0 0
    outer loop
      vertex 3 47 75
      vertex 3 28 75
      vertex 3 47 50
    endloop
  endfacet
  facet normal 1 -0 0
    outer loop
      vertex 3 50 47
      vertex 3 72 3
      vertex 3 72 47
    endloop
  endfacet
  facet normal 1 0 0
    outer loop
      vertex 3 25 47
      vertex 3 50 47
      vertex 3 47 50
    endloop
  endfacet
  facet normal 1 0 0
    outer loop
      vertex 3 28 50
      vertex 3 47 50
      vertex 3 28 75
    endloop
  endfacet
  facet normal 1 0 0
    outer loop
      vertex 3 25 47
      vertex 3 47 50
      vertex 3 28 50
    endloop
  endfacet
  facet normal 1 0 0
    outer loop
      vertex 3 50 47
      vertex 3 25 47
      vertex 3 72 3
    endloop
  endfacet
  facet normal 1 0 0
    outer loop
      vertex 3 3 47
      vertex 3 25 47
      vertex 3 3 75
    endloop
  endfacet
  facet normal 1 0 0
    outer loop
      vertex 3 3 3
      vertex 3 25 47
      vertex 3 3 47
    endloop
  endfacet
  facet normal 1 0 0
    outer loop
      vertex 3 25 47
      vertex 3 3 3
      vertex 3 72 3
    endloop
  endfacet
  facet normal -1 0 0
    outer loop
      vertex 72 72 3
      vertex 72 50 47
      vertex 72 72 75
    endloop
  endfacet
  facet normal -1 0 0
    outer loop
      vertex 72 25 47
      vertex 72 50 47
      vertex 72 72 3
    endloop
  endfacet
  facet normal -1 0 0
    outer loop
      vertex 72 47 50
      vertex 72 28 50
      vertex 72 47 75
    endloop
  endfacet
  facet normal -1 0 0
    outer loop
      vertex 72 50 47
      vertex 72 25 47
      vertex 72 47 50
    endloop
  endfacet
  facet normal -1 -0 0
    outer loop
      vertex 72 47 50
      vertex 72 25 47
      vertex 72 28 50
    endloop
  endfacet
  facet normal -1 0 0
    outer loop
      vertex 72 3 3
      vertex 72 25 47
      vertex 72 72 3
    endloop
  endfacet
  facet normal -1 -0 0
    outer loop
      vertex 72 25 47
      vertex 72 3 3
      vertex 72 3 47
    endloop
  endfacet
  facet normal -1 -0 0
    outer loop
      vertex 72 72 75
      vertex 72 50 47
      vertex 72 50 75
    endloop
  endfacet
  facet normal -1 -0 0
    outer loop
      vertex 72 47 75
      vertex 72 28 50
      vertex 72 28 75
    endloop
  endfacet
  facet normal 0 -1 0
    outer loop
      vertex 3 72 47
      vertex 25 72 75
      vertex 3 72 75
    endloop
  endfacet
  facet normal 0 -1 0
    outer loop
      vertex 3 72 47
      vertex 25 72 47
      vertex 25 72 75
    endloop
  endfacet
  facet normal 0 -1 0
    outer loop
      vertex 3 72 3
      vertex 25 72 47
      vertex 3 72 47
    endloop
  endfacet
  facet normal 0 -1 -0
    outer loop
      vertex 25 72 47
      vertex 3 72 3
      vertex 50 72 47
    endloop
  endfacet
  facet normal 0 -1 0
    outer loop
      vertex 28 72 50
      vertex 47 72 75
      vertex 28 72 75
    endloop
  endfacet
  facet normal 0 -1 0
    outer loop
      vertex 28 72 50
      vertex 47 72 50
      vertex 47 72 75
    endloop
  endfacet
  facet normal 0 -1 0
    outer loop
      vertex 25 72 47
      vertex 47 72 50
      vertex 28 72 50
    endloop
  endfacet
  facet normal 0 -1 -0
    outer loop
      vertex 47 72 50
      vertex 25 72 47
      vertex 50 72 47
    endloop
  endfacet
  facet normal 0 -1 0
    outer loop
      vertex 50 72 47
      vertex 72 72 75
      vertex 50 72 75
    endloop
  endfacet
  facet normal 0 -1 0
    outer loop
      vertex 50 72 47
      vertex 72 72 3
      vertex 72 72 75
    endloop
  endfacet
  facet normal 0 -1 0
    outer loop
      vertex 72 72 3
      vertex 50 72 47
      vertex 3 72 3
    endloop
  endfacet
  facet normal 0 0 1
    outer loop
      vertex 42.2553 48.9549 3
      vertex 72 72 3
      vertex 42.5 50.5 3
    endloop
  endfacet
  facet normal 0 0 1
    outer loop
      vertex 72 72 3
      vertex 42.2553 52.0451 3
      vertex 42.5 50.5 3
    endloop
  endfacet
  facet normal 0 0 1
    outer loop
      vertex 72 72 3
      vertex 41.5451 53.4389 3
      vertex 42.2553 52.0451 3
    endloop
  endfacet
  facet normal 0 0 1
    outer loop
      vertex 72 72 3
      vertex 40.4389 54.5451 3
      vertex 41.5451 53.4389 3
    endloop
  endfacet
  facet normal 0 0 1
    outer loop
      vertex 72 72 3
      vertex 39.0451 55.2553 3
      vertex 40.4389 54.5451 3
    endloop
  endfacet
  facet normal 0 0 1
    outer loop
      vertex 72 72 3
      vertex 37.5 55.5 3
      vertex 39.0451 55.2553 3
    endloop
  endfacet
  facet normal -0 0 1
    outer loop
      vertex 3 72 3
      vertex 37.5 55.5 3
      vertex 72 72 3
    endloop
  endfacet
  facet normal 0 0 1
    outer loop
      vertex 32.7447 52.0451 3
      vertex 3 72 3
      vertex 32.5 50.5 3
    endloop
  endfacet
  facet normal 0 0 1
    outer loop
      vertex 33.4549 53.4389 3
      vertex 3 72 3
      vertex 32.7447 52.0451 3
    endloop
  endfacet
  facet normal 0 0 1
    outer loop
      vertex 34.5611 54.5451 3
      vertex 3 72 3
      vertex 33.4549 53.4389 3
    endloop
  endfacet
  facet normal 0 0 1
    outer loop
      vertex 35.9549 55.2553 3
      vertex 3 72 3
      vertex 34.5611 54.5451 3
    endloop
  endfacet
  facet normal 0 0 1
    outer loop
      vertex 37.5 55.5 3
      vertex 3 72 3
      vertex 35.9549 55.2553 3
    endloop
  endfacet
  facet normal 0 0 1
    outer loop
      vertex 72 72 3
      vertex 42.2553 48.9549 3
      vertex 72 3 3
    endloop
  endfacet
  facet normal -0 0 1
    outer loop
      vertex 41.5451 47.5611 3
      vertex 72 3 3
      vertex 42.2553 48.9549 3
    endloop
  endfacet
  facet normal -0 0 1
    outer loop
      vertex 40.4389 46.4549 3
      vertex 72 3 3
      vertex 41.5451 47.5611 3
    endloop
  endfacet
  facet normal -0 0 1
    outer loop
      vertex 39.0451 45.7447 3
      vertex 72 3 3
      vertex 40.4389 46.4549 3
    endloop
  endfacet
  facet normal -0 0 1
    outer loop
      vertex 37.5 45.5 3
      vertex 72 3 3
      vertex 39.0451 45.7447 3
    endloop
  endfacet
  facet normal 0 0 1
    outer loop
      vertex 3 3 3
      vertex 37.5 45.5 3
      vertex 35.9549 45.7447 3
    endloop
  endfacet
  facet normal 0 0 1
    outer loop
      vertex 3 3 3
      vertex 35.9549 45.7447 3
      vertex 34.5611 46.4549 3
    endloop
  endfacet
  facet normal 0 0 1
    outer loop
      vertex 3 3 3
      vertex 34.5611 46.4549 3
      vertex 33.4549 47.5611 3
    endloop
  endfacet
  facet normal 0 0 1
    outer loop
      vertex 3 72 3
      vertex 32.7447 48.9549 3
      vertex 32.5 50.5 3
    endloop
  endfacet
  facet normal 0 0 1
    outer loop
      vertex 3 3 3
      vertex 32.7447 48.9549 3
      vertex 3 72 3
    endloop
  endfacet
  facet normal 0 0 1
    outer loop
      vertex 32.7447 48.9549 3
      vertex 3 3 3
      vertex 33.4549 47.5611 3
    endloop
  endfacet
  facet normal 0 0 1
    outer loop
      vertex 37.5 45.5 3
      vertex 3 3 3
      vertex 72 3 3
    endloop
  endfacet
  facet normal 0 1 -0
    outer loop
      vertex 72 3 47
      vertex 50 3 75
      vertex 72 3 75
    endloop
  endfacet
  facet normal 0 1 0
    outer loop
      vertex 72 3 47
      vertex 50 3 47
      vertex 50 3 75
    endloop
  endfacet
  facet normal 0 1 -0
    outer loop
      vertex 72 3 3
      vertex 50 3 47
      vertex 72 3 47
    endloop
  endfacet
  facet normal 0 1 0
    outer loop
      vertex 50 3 47
      vertex 72 3 3
      vertex 25 3 47
    endloop
  endfacet
  facet normal 0 1 0
    outer loop
      vertex 3 3 3
      vertex 25 3 47
      vertex 72 3 3
    endloop
  endfacet
  facet normal 0 1 0
    outer loop
      vertex 25 3 47
      vertex 3 3 3
      vertex 3 3 47
    endloop
  endfacet
  facet normal 0 1 -0
    outer loop
      vertex 47 3 50
      vertex 28 3 75
      vertex 47 3 75
    endloop
  endfacet
  facet normal 0 1 0
    outer loop
      vertex 47 3 50
      vertex 28 3 50
      vertex 28 3 75
    endloop
  endfacet
  facet normal 0 1 0
    outer loop
      vertex 50 3 47
      vertex 28 3 50
      vertex 47 3 50
    endloop
  endfacet
  facet normal 0 1 0
    outer loop
      vertex 28 3 50
      vertex 50 3 47
      vertex 25 3 47
    endloop
  endfacet
  facet normal -1 0 0
    outer loop
      vertex 47 72 50
      vertex 47 47 75
      vertex 47 72 75
    endloop
  endfacet
  facet normal -0 -1 -0
    outer loop
      vertex 72 47 75
      vertex 47 47 75
      vertex 72 47 50
    endloop
  endfacet
  facet normal 1 0 0
    outer loop
      vertex 50 50 69
      vertex 50 72 75
      vertex 50 50 75
    endloop
  endfacet
  facet normal 1 0 0
    outer loop
      vertex 50 72 75
      vertex 50 50 69
      vertex 50 72 47
    endloop
  endfacet
  facet normal 0 1 0
    outer loop
      vertex 72 50 75
      vertex 50 50 69
      vertex 50 50 75
    endloop
  endfacet
  facet normal -0 1 0
    outer loop
      vertex 50 50 69
      vertex 72 50 75
      vertex 72 50 47
    endloop
  endfacet
  facet normal -0.57735 -0.57735 -0.57735
    outer loop
      vertex 72 50 47
      vertex 72 47 50
      vertex 50 50 69
    endloop
  endfacet
  facet normal -0.57735 -0.57735 -0.57735
    outer loop
      vertex 50 50 69
      vertex 47 72 50
      vertex 50 72 47
    endloop
  endfacet
  facet normal -0.57735 -0.57735 -0.57735
    outer loop
      vertex 50 50 69
      vertex 47 47 75
      vertex 47 72 50
    endloop
  endfacet
  facet normal -0.57735 -0.57735 -0.57735
    outer loop
      vertex 47 47 75
      vertex 50 50 69
      vertex 72 47 50
    endloop
  endfacet
  facet normal 0 -1 0
    outer loop
      vertex 3 47 75
      vertex 3 47 50
      vertex 28 47 75
    endloop
  endfacet
  facet normal 0 1 -0
    outer loop
      vertex 28 75 47
      vertex 2.29621e-15 75 75
      vertex 28 75 75
    endloop
  endfacet
  facet normal 0 1 0
    outer loop
      vertex 2.29621e-15 75 75
      vertex 28 75 47
      vertex 2.29621e-15 75 47
    endloop
  endfacet
  facet normal 1 0 0
    outer loop
      vertex 28 72 75
      vertex 28 47 75
      vertex 28 72 50
    endloop
  endfacet
  facet normal 0 1 -0
    outer loop
      vertex 25 50 69
      vertex 3 50 75
      vertex 25 50 75
    endloop
  endfacet
  facet normal 0 1 0
    outer loop
      vertex 3 50 75
      vertex 25 50 69
      vertex 3 50 47
    endloop
  endfacet
  facet normal -1 0 0
    outer loop
      vertex 25 50 69
      vertex 25 72 75
      vertex 25 72 47
    endloop
  endfacet
  facet normal -1 -0 0
    outer loop
      vertex 25 72 75
      vertex 25 50 69
      vertex 25 50 75
    endloop
  endfacet
  facet normal 1 -0 0
    outer loop
      vertex 3 50 75
      vertex 3 72 47
      vertex 3 72 75
    endloop
  endfacet
  facet normal 1 0 0
    outer loop
      vertex 3 72 47
      vertex 3 50 75
      vertex 3 50 47
    endloop
  endfacet
  facet normal 0.57735 -0.57735 -0.57735
    outer loop
      vertex 28 72 50
      vertex 25 50 69
      vertex 25 72 47
    endloop
  endfacet
  facet normal 0.57735 -0.57735 -0.57735
    outer loop
      vertex 28 47 75
      vertex 25 50 69
      vertex 28 72 50
    endloop
  endfacet
  facet normal 0.57735 -0.57735 -0.57735
    outer loop
      vertex 3 47 50
      vertex 25 50 69
      vertex 28 47 75
    endloop
  endfacet
  facet normal 0.57735 -0.57735 -0.57735
    outer loop
      vertex 25 50 69
      vertex 3 47 50
      vertex 3 50 47
    endloop
  endfacet
  facet normal 1 -0 0
    outer loop
      vertex 28 3 75
      vertex 28 3 50
      vertex 28 28 75
    endloop
  endfacet
  facet normal -1 1.22465e-16 0
    outer loop
      vertex -4.59243e-15 4.59243e-15 47
      vertex -1.16341e-15 28 75
      vertex -1.16341e-15 28 47
    endloop
  endfacet
  facet normal -1 1.22465e-16 0
    outer loop
      vertex -1.16341e-15 28 75
      vertex -4.59243e-15 4.59243e-15 47
      vertex -4.59243e-15 4.59243e-15 75
    endloop
  endfacet
  facet normal 0 0 -1
    outer loop
      vertex 0 4.59243e-15 47
      vertex -1.16341e-15 28 47
      vertex 0 28 47
    endloop
  endfacet
  facet normal 0 -0 -1
    outer loop
      vertex -1.16341e-15 28 47
      vertex 0 4.59243e-15 47
      vertex -4.59243e-15 4.59243e-15 47
    endloop
  endfacet
  facet normal 0 1 0
    outer loop
      vertex 28 28 75
      vertex 3 28 50
      vertex 3 28 75
    endloop
  endfacet
  facet normal 0 1 -0
    outer loop
      vertex 0 28 47
      vertex -1.16341e-15 28 75
      vertex 0 28 75
    endloop
  endfacet
  facet normal 0 1 0
    outer loop
      vertex -1.16341e-15 28 75
      vertex 0 28 47
      vertex -1.16341e-15 28 47
    endloop
  endfacet
  facet normal 0 -1 0
    outer loop
      vertex -4.59243e-15 4.59243e-15 47
      vertex 0 4.59243e-15 75
      vertex -4.59243e-15 4.59243e-15 75
    endloop
  endfacet
  facet normal 0 -1 -0
    outer loop
      vertex 0 4.59243e-15 75
      vertex -4.59243e-15 4.59243e-15 47
      vertex 0 4.59243e-15 47
    endloop
  endfacet
  facet normal -1 0 0
    outer loop
      vertex 25 3 75
      vertex 25 25 69
      vertex 25 3 47
    endloop
  endfacet
  facet normal -1 0 0
    outer loop
      vertex 25 25 69
      vertex 25 3 75
      vertex 25 25 75
    endloop
  endfacet
  facet normal 0 -1 0
    outer loop
      vertex 3 25 75
      vertex 25 25 69
      vertex 25 25 75
    endloop
  endfacet
  facet normal -0 -1 0
    outer loop
      vertex 25 25 69
      vertex 3 25 75
      vertex 3 25 47
    endloop
  endfacet
  facet normal 0 1 -0
    outer loop
      vertex 25 3 47
      vertex 3 3 75
      vertex 25 3 75
    endloop
  endfacet
  facet normal 0 1 0
    outer loop
      vertex 3 3 75
      vertex 25 3 47
      vertex 3 3 47
    endloop
  endfacet
  facet normal 0.57735 0.57735 -0.57735
    outer loop
      vertex 28 28 75
      vertex 25 25 69
      vertex 3 28 50
    endloop
  endfacet
  facet normal 0.57735 0.57735 -0.57735
    outer loop
      vertex 28 3 50
      vertex 25 25 69
      vertex 28 28 75
    endloop
  endfacet
  facet normal 0.57735 0.57735 -0.57735
    outer loop
      vertex 25 25 69
      vertex 28 3 50
      vertex 25 3 47
    endloop
  endfacet
  facet normal 0.57735 0.57735 -0.57735
    outer loop
      vertex 3 28 50
      vertex 25 25 69
      vertex 3 25 47
    endloop
  endfacet
  facet normal 0 1 -0
    outer loop
      vertex 72 28 50
      vertex 47 28 75
      vertex 72 28 75
    endloop
  endfacet
  facet normal -1.83697e-16 -1 0
    outer loop
      vertex 47 -1.74512e-15 47
      vertex 75 -6.88864e-15 75
      vertex 47 -1.74512e-15 75
    endloop
  endfacet
  facet normal -1.83697e-16 -1 -0
    outer loop
      vertex 75 -6.88864e-15 75
      vertex 47 -1.74512e-15 47
      vertex 75 -6.88864e-15 47
    endloop
  endfacet
  facet normal 0 0 -1
    outer loop
      vertex 47 -1.74512e-15 47
      vertex 75 0 47
      vertex 75 -6.88864e-15 47
    endloop
  endfacet
  facet normal -0 0 -1
    outer loop
      vertex 75 0 47
      vertex 47 -1.74512e-15 47
      vertex 47 0 47
    endloop
  endfacet
  facet normal -1 -0 0
    outer loop
      vertex 47 28 75
      vertex 47 3 50
      vertex 47 3 75
    endloop
  endfacet
  facet normal -1 0 0
    outer loop
      vertex 47 -1.74512e-15 47
      vertex 47 0 75
      vertex 47 0 47
    endloop
  endfacet
  facet normal -1 -0 0
    outer loop
      vertex 47 0 75
      vertex 47 -1.74512e-15 47
      vertex 47 -1.74512e-15 75
    endloop
  endfacet
  facet normal 1 -0 0
    outer loop
      vertex 75 -6.88864e-15 75
      vertex 75 0 47
      vertex 75 0 75
    endloop
  endfacet
  facet normal 1 0 0
    outer loop
      vertex 75 0 47
      vertex 75 -6.88864e-15 75
      vertex 75 -6.88864e-15 47
    endloop
  endfacet
  facet normal 0 -1 0
    outer loop
      vertex 50 25 69
      vertex 72 25 75
      vertex 50 25 75
    endloop
  endfacet
  facet normal 0 -1 -0
    outer loop
      vertex 72 25 75
      vertex 50 25 69
      vertex 72 25 47
    endloop
  endfacet
  facet normal 1 -0 0
    outer loop
      vertex 50 3 75
      vertex 50 25 69
      vertex 50 25 75
    endloop
  endfacet
  facet normal 1 0 0
    outer loop
      vertex 50 25 69
      vertex 50 3 75
      vertex 50 3 47
    endloop
  endfacet
  facet normal -1 0 0
    outer loop
      vertex 72 3 47
      vertex 72 25 75
      vertex 72 25 47
    endloop
  endfacet
  facet normal -1 -0 0
    outer loop
      vertex 72 25 75
      vertex 72 3 47
      vertex 72 3 75
    endloop
  endfacet
  facet normal -0.57735 0.57735 -0.57735
    outer loop
      vertex 50 25 69
      vertex 72 28 50
      vertex 72 25 47
    endloop
  endfacet
  facet normal -0.57735 0.57735 -0.57735
    outer loop
      vertex 72 28 50
      vertex 50 25 69
      vertex 47 28 75
    endloop
  endfacet
  facet normal -0.57735 0.57735 -0.57735
    outer loop
      vertex 47 3 50
      vertex 50 25 69
      vertex 50 3 47
    endloop
  endfacet
  facet normal -0.57735 0.57735 -0.57735
    outer loop
      vertex 50 25 69
      vertex 47 3 50
      vertex 47 28 75
    endloop
  endfacet
  facet normal 0 0 1
    outer loop
      vertex 42.2553 52.0451 3
      vertex 42.2553 48.9549 3
      vertex 42.5 50.5 3
    endloop
  endfacet
  facet normal 0 0 1
    outer loop
      vertex 41.5451 53.4389 3
      vertex 42.2553 48.9549 3
      vertex 42.2553 52.0451 3
    endloop
  endfacet
  facet normal 0 0 1
    outer loop
      vertex 41.5451 53.4389 3
      vertex 41.5451 47.5611 3
      vertex 42.2553 48.9549 3
    endloop
  endfacet
  facet normal 0 0 1
    outer loop
      vertex 40.4389 54.5451 3
      vertex 41.5451 47.5611 3
      vertex 41.5451 53.4389 3
    endloop
  endfacet
  facet normal 0 0 1
    outer loop
      vertex 40.4389 54.5451 3
      vertex 40.4389 46.4549 3
      vertex 41.5451 47.5611 3
    endloop
  endfacet
  facet normal 0 0 1
    outer loop
      vertex 39.0451 55.2553 3
      vertex 40.4389 46.4549 3
      vertex 40.4389 54.5451 3
    endloop
  endfacet
  facet normal 0 0 1
    outer loop
      vertex 39.0451 55.2553 3
      vertex 39.0451 45.7447 3
      vertex 40.4389 46.4549 3
    endloop
  endfacet
  facet normal 0 0 1
    outer loop
      vertex 37.5 55.5 3
      vertex 39.0451 45.7447 3
      vertex 39.0451 55.2553 3
    endloop
  endfacet
  facet normal 0 0 1
    outer loop
      vertex 37.5 55.5 3
      vertex 37.5 45.5 3
      vertex 39.0451 45.7447 3
    endloop
  endfacet
  facet normal -0 0 1
    outer loop
      vertex 35.9549 55.2553 3
      vertex 37.5 45.5 3
      vertex 37.5 55.5 3
    endloop
  endfacet
  facet normal 0 0 1
    outer loop
      vertex 35.9549 55.2553 3
      vertex 35.9549 45.7447 3
      vertex 37.5 45.5 3
    endloop
  endfacet
  facet normal -0 0 1
    outer loop
      vertex 34.5611 54.5451 3
      vertex 35.9549 45.7447 3
      vertex 35.9549 55.2553 3
    endloop
  endfacet
  facet normal 0 0 1
    outer loop
      vertex 34.5611 54.5451 3
      vertex 34.5611 46.4549 3
      vertex 35.9549 45.7447 3
    endloop
  endfacet
  facet normal -0 0 1
    outer loop
      vertex 33.4549 53.4389 3
      vertex 34.5611 46.4549 3
      vertex 34.5611 54.5451 3
    endloop
  endfacet
  facet normal 0 0 1
    outer loop
      vertex 33.4549 53.4389 3
      vertex 33.4549 47.5611 3
      vertex 34.5611 46.4549 3
    endloop
  endfacet
  facet normal -0 0 1
    outer loop
      vertex 32.7447 52.0451 3
      vertex 33.4549 47.5611 3
      vertex 33.4549 53.4389 3
    endloop
  endfacet
  facet normal 0 0 1
    outer loop
      vertex 32.7447 52.0451 3
      vertex 32.7447 48.9549 3
      vertex 33.4549 47.5611 3
    endloop
  endfacet
  facet normal 0 -0 1
    outer loop
      vertex 32.7447 48.9549 3
      vertex 32.7447 52.0451 3
      vertex 32.5 50.5 3
    endloop
  endfacet
endsolid OpenSCAD_Model
